
<svg version="1.1" xmlns="http://www.w3.org/2000/svg" width="152" height="222">
<path d="M0 0 C4.26118637 2.60451425 8.61491844 5.02301812 12.9921875 7.42578125 C19.56277304 11.04236111 26.05566779 14.76635179 32.50463867 18.59521484 C37.33104523 21.45493714 42.1934031 24.24389581 47.07666016 27.00537109 C77.74790609 44.38043703 77.74790609 44.38043703 81.1171875 54.48828125 C81.76882746 62.29727817 81.94045445 69.07138516 77.1171875 75.48828125 C70.98085334 81.8596699 64.05769596 86.10430479 56.3046875 90.23828125 C54.06895889 91.45976528 51.8345987 92.68375705 49.6015625 93.91015625 C48.50134766 94.51279297 47.40113281 95.11542969 46.26757812 95.73632812 C41.80121115 98.22010443 37.42185304 100.83495482 33.0546875 103.48828125 C18.76803086 112.14461376 4.34283442 120.57346549 -10.1953125 128.80078125 C-10.84081055 129.16776123 -11.48630859 129.53474121 -12.15136719 129.9128418 C-17.91506488 133.15077662 -22.33913154 134.22205807 -28.8828125 133.48828125 C-36.4659797 131.32005715 -42.35146645 128.33472422 -46.46948242 121.44042969 C-49.13786121 116.50857368 -49.65177451 112.48226586 -49.68359375 106.94140625 C-49.70738602 105.97736877 -49.73117828 105.0133313 -49.75569153 104.02008057 C-49.82913782 100.50929785 -49.85791839 96.99974262 -49.8828125 93.48828125 C-49.89791154 92.02969845 -49.91354066 90.57112108 -49.92962646 89.11254883 C-50.03710945 78.94326029 -50.06909763 68.77478545 -50.06811523 58.60498047 C-50.06801257 54.10359317 -50.08181368 49.60235991 -50.09888744 45.10100937 C-50.11004913 41.58690694 -50.11203338 38.07284179 -50.11150551 34.55872345 C-50.11267358 32.89873968 -50.11702813 31.23875457 -50.12483788 29.57878876 C-50.22973815 5.04790819 -50.22973815 5.04790819 -43.6640625 -2.7890625 C-29.33068186 -16.65095035 -14.62033822 -8.98820991 0 0 Z " fill="#3D085A" transform="translate(60.8828125,47.51171875)"/>
<path d="M0 0 C1.16982422 -0.05607422 1.16982422 -0.05607422 2.36328125 -0.11328125 C5.6270352 0.48461653 6.73410851 1.66398271 8.6875 4.3125 C9.18359375 7.15234375 9.18359375 7.15234375 9.125 10.25 C9.12371094 11.26964844 9.12242188 12.28929688 9.12109375 13.33984375 C7.81657661 22.28342523 -1.63278694 30.39376857 -8.39453125 35.88671875 C-21.16392256 45.37923978 -37.16860885 53.41777832 -53.3125 54.3125 C-57.4484294 53.67695529 -61.33061069 52.57782928 -65.3125 51.3125 C-66.06273437 51.17070312 -66.81296875 51.02890625 -67.5859375 50.8828125 C-68.44058594 50.60050781 -68.44058594 50.60050781 -69.3125 50.3125 C-70.4375 47.5 -70.4375 47.5 -71.3125 44.3125 C-71.65506836 43.71373047 -71.99763672 43.11496094 -72.35058594 42.49804688 C-73.61589254 39.6231675 -73.57160326 37.29227289 -73.578125 34.15625 C-73.58070312 32.96902344 -73.58328125 31.78179687 -73.5859375 30.55859375 C-73.57820313 29.32238281 -73.57046875 28.08617187 -73.5625 26.8125 C-73.57023437 25.57628906 -73.57796875 24.34007812 -73.5859375 23.06640625 C-73.58335938 21.87917969 -73.58078125 20.69195312 -73.578125 19.46875 C-73.57586914 18.38400391 -73.57361328 17.29925781 -73.57128906 16.18164062 C-73.3170328 13.36275416 -72.77003373 11.70650277 -71.3125 9.3125 C-70.80203125 10.00085938 -70.80203125 10.00085938 -70.28125 10.703125 C-65.89032484 16.2618494 -61.80676194 19.45776307 -54.765625 20.796875 C-37.52137218 22.0354125 -19.46242364 9.76842106 -5.3125 1.3125 C-3.74308802 -0.25691198 -2.17115006 0.0675153 0 0 Z " fill="#C36EF1" transform="translate(85.3125,107.6875)"/>
<path d="M0 0 C0.73138184 0.29527588 1.46276367 0.59055176 2.21630859 0.89477539 C3.88349585 1.55670809 5.55668228 2.20422197 7.24072266 2.82202148 C14.40026494 5.50589919 20.81687423 9.15923973 27.375 13.0625 C28.44105469 13.68705078 29.50710937 14.31160156 30.60546875 14.95507812 C40.19124067 20.60405189 40.19124067 20.60405189 43 23 C43 23.66 43 24.32 43 25 C41.8140625 25.00257812 40.628125 25.00515625 39.40625 25.0078125 C21.67086266 25.31934773 8.98214228 30.95688658 -6 40 C-7.99094833 41.18204731 -9.9903314 42.35006817 -12 43.5 C-12.825 43.9846875 -13.65 44.469375 -14.5 44.96875 C-17.52719825 46.21746928 -19.75338426 46.29514689 -23 46 C-25.9425305 43.98668966 -26.82340722 42.70637112 -27.6875 39.25 C-26.05367671 31.52647173 -18.66277672 26.824528 -12.875 22 C-6.49707027 16.65356158 -1.38886937 12.089791 -0.1875 3.5 C-0.0946875 1.7675 -0.0946875 1.7675 0 0 Z " fill="#C474F0" transform="translate(73,57)"/>
<path d="M0 0 C4.55646109 1.88201654 8.77122637 5.54245273 11 10 C11.57167967 15.52623683 11.17313434 19.35446902 8.015625 24 C4.89286902 27.09854857 1.10901294 28.96221655 -2.75317383 30.98242188 C-7.48837962 33.51455045 -10.62680018 36.29203046 -13.86328125 40.53125 C-14.42595703 41.25828125 -14.42595703 41.25828125 -15 42 C-15.33 42 -15.66 42 -16 42 C-16.12385084 36.82227254 -16.21445571 31.64541212 -16.2746582 26.46655273 C-16.29976061 24.70598324 -16.33385028 22.94551753 -16.37719727 21.18530273 C-16.43804115 18.65061821 -16.46625113 16.11731425 -16.48828125 13.58203125 C-16.51408768 12.79850784 -16.5398941 12.01498444 -16.56648254 11.2077179 C-16.56864182 6.97447216 -16.35632669 5.45273279 -13.6394043 2.00073242 C-9.30314381 -1.28625811 -5.20989909 -0.71616438 0 0 Z " fill="#BF69EE" transform="translate(29,55)"/>
<path d="M0 0 C8.92029307 4.74882916 16.73065284 8.97302903 20 19 C20.85270491 26.74375041 20.7716007 33.64605755 16 40 C9.66193763 46.63218617 2.3440269 50.95638657 -5.6875 55.25 C-7.8800639 56.44057888 -10.07150736 57.63322392 -12.26171875 58.828125 C-13.26895996 59.37533203 -14.27620117 59.92253906 -15.31396484 60.48632812 C-17.50257901 61.71968641 -19.57904933 62.99688657 -21.64453125 64.421875 C-24 66 -24 66 -26 66 C-26 65.01 -26 64.02 -26 63 C-24.73308493 62.32591692 -23.46129251 61.66099503 -22.1875 61 C-21.47980469 60.62875 -20.77210937 60.2575 -20.04296875 59.875 C-18 59 -18 59 -15 59 C-14.67 58.01 -14.34 57.02 -14 56 C-11.9609375 54.7890625 -11.9609375 54.7890625 -9.375 53.625 C-4.82047549 51.46827953 -1.01607995 49.03255017 3 46 C6 44 6 44 10 44 C10.33 43.01 10.66 42.02 11 41 C11.66 41 12.32 41 13 41 C13.68346682 39.34015202 14.34588315 37.67163195 15 36 C15.5259375 34.700625 15.5259375 34.700625 16.0625 33.375 C17.37873522 28.6365532 17.66910242 23.89380111 18 19 C17.34 19 16.68 19 16 19 C13.125 12.375 13.125 12.375 12 9 C10.00945124 8.30562253 8.00744615 7.64389782 6 7 C2.625 5.0625 2.625 5.0625 0 3 C0 2.01 0 1.02 0 0 Z " fill="#21062E" transform="translate(122,83)"/>
<path d="M0 0 C0.33 0 0.66 0 1 0 C1.12117187 0.67546875 1.24234375 1.3509375 1.3671875 2.046875 C1.53476563 2.93890625 1.70234375 3.8309375 1.875 4.75 C2.03742187 5.63171875 2.19984375 6.5134375 2.3671875 7.421875 C2.96796264 9.86947744 3.77997117 11.80599857 5 14 C4.01 15.485 4.01 15.485 3 17 C3.15688424 19.12816413 3.15688424 19.12816413 4 21 C4.66 21.33 5.32 21.66 6 22 C5.67 22.99 5.34 23.98 5 25 C5.66 25 6.32 25 7 25 C8.33333333 27.66666667 9.66666667 30.33333333 11 33 C12.32 33 13.64 33 15 33 C15.33 33.66 15.66 34.32 16 35 C18.52733235 35.65555119 18.52733235 35.65555119 21 36 C21 36.66 21 37.32 21 38 C23.475 37.505 23.475 37.505 26 37 C26 36.34 26 35.68 26 35 C29.3 35 32.6 35 36 35 C32 38 32 38 30 38 C30 38.66 30 39.32 30 40 C21.55479991 40.54485162 15.42841485 38.65704891 8.1875 34.3125 C1.54812646 27.29373369 0.24103256 20.36517783 0.1875 10.9375 C0.16236328 9.88111328 0.13722656 8.82472656 0.11132812 7.73632812 C0.05297628 5.1571765 0.0163171 2.57970157 0 0 Z " fill="#631191" transform="translate(11,141)"/>
<path d="M0 0 C12.09617511 -0.78039839 20.53768038 4.70286267 30.484375 10.87890625 C33.56819624 12.77957825 36.73261565 14.43145506 40 16 C36.54725792 17.21630687 34.79218598 16.82893498 31.5 15.3125 C30.7471875 14.97863281 29.994375 14.64476562 29.21875 14.30078125 C27 13 27 13 25.06640625 11.05078125 C18.46621358 4.50049552 8.98406232 2.0257394 0 1 C0 0.67 0 0.34 0 0 Z " fill="#1F042D" transform="translate(31,37)"/>
<path d="M0 0 C3.3 0.33 6.6 0.66 10 1 C10 1.66 10 2.32 10 3 C11.65 2.67 13.3 2.34 15 2 C15 1.34 15 0.68 15 0 C18.3 0 21.6 0 25 0 C21 3 21 3 19 3 C19 3.66 19 4.32 19 5 C11.67372525 5.47266289 6.62615673 4.09866202 0 1 C0 0.67 0 0.34 0 0 Z " fill="#4C0D6E" transform="translate(22,176)"/>
<path d="M0 0 C-0.59167969 0.37511719 -1.18335937 0.75023437 -1.79296875 1.13671875 C-7.18454821 4.60702193 -7.18454821 4.60702193 -11.9375 8.875 C-12.9584375 9.926875 -12.9584375 9.926875 -14 11 C-14.66 11 -15.32 11 -16 11 C-16 12.65 -16 14.3 -16 16 C-16.66 16 -17.32 16 -18 16 C-18.33 17.32 -18.66 18.64 -19 20 C-18.75201688 13.05647263 -16.90514264 8.9578861 -12 4 C-4.91678858 -1.7372653 -4.91678858 -1.7372653 0 0 Z " fill="#240539" transform="translate(31,39)"/>
<path d="M0 0 C3 3 6 6 9 9 C8.01 9.33 7.02 9.66 6 10 C5.01 9.34 4.02 8.68 3 8 C3 7.01 3 6.02 3 5 C2.01 5 1.02 5 0 5 C0 13.58 0 22.16 0 31 C-0.33 31 -0.66 31 -1 31 C-1.02902168 26.58334712 -1.04680608 22.16671877 -1.0625 17.75 C-1.07087891 16.49574219 -1.07925781 15.24148437 -1.08789062 13.94921875 C-1.09111328 12.74394531 -1.09433594 11.53867188 -1.09765625 10.296875 C-1.10289307 9.18666992 -1.10812988 8.07646484 -1.11352539 6.93261719 C-1.01658493 4.42842621 -0.73230276 2.3818844 0 0 Z " fill="#9D59C1" transform="translate(13,117)"/>
<path d="M0 0 C4.10839064 1.45002023 7.50344613 3.3979134 11 6 C11 6.66 11 7.32 11 8 C7.04 8 3.08 8 -1 8 C-0.34 7.34 0.32 6.68 1 6 C0.67801034 2.90073181 0.67801034 2.90073181 0 0 Z " fill="#975FB7" transform="translate(105,74)"/>
<path d="M0 0 C-0.33 0.66 -0.66 1.32 -1 2 C-3.66403033 2.70880627 -6.23002709 3.27476884 -8.9375 3.75 C-9.70570068 3.88704346 -10.47390137 4.02408691 -11.26538086 4.1652832 C-17.19672978 5.11067969 -22.25721348 4.96129564 -28 3 C-28 2.67 -28 2.34 -28 2 C-24.27114739 1.66309057 -20.5418724 1.33110205 -16.8125 1 C-15.75740234 0.90460938 -14.70230469 0.80921875 -13.61523438 0.7109375 C-12.59365234 0.62070313 -11.57207031 0.53046875 -10.51953125 0.4375 C-9.58214111 0.35371094 -8.64475098 0.26992187 -7.67895508 0.18359375 C-5.10912909 0.00747882 -2.57485166 -0.0326706 0 0 Z " fill="#9D3DD0" transform="translate(50,157)"/>
<path d="M0 0 C4.14032846 1.54385129 7.93553053 3.51028938 11.8125 5.625 C12.40998047 5.94984375 13.00746094 6.2746875 13.62304688 6.609375 C15.08337135 7.40379151 16.54187491 8.20155376 18 9 C14.21180727 10.43410153 11.93478721 9.51009497 8.25 8.0625 C7.26515625 7.68222656 6.2803125 7.30195312 5.265625 6.91015625 C4.51796875 6.60980469 3.7703125 6.30945313 3 6 C3 4.68 3 3.36 3 2 C2.01 2.33 1.02 2.66 0 3 C0 2.01 0 1.02 0 0 Z " fill="#8C57A8" transform="translate(84,62)"/>
<path d="M0 0 C0.33 0 0.66 0 1 0 C1.12117187 0.67546875 1.24234375 1.3509375 1.3671875 2.046875 C1.53476563 2.93890625 1.70234375 3.8309375 1.875 4.75 C2.03742187 5.63171875 2.19984375 6.5134375 2.3671875 7.421875 C2.96796264 9.86947744 3.77997117 11.80599857 5 14 C4.01 15.485 4.01 15.485 3 17 C2.75944532 19.05709596 2.75944532 19.05709596 2.875 21.1875 C2.91625 22.445625 2.9575 23.70375 3 25 C0.43863779 22.43863779 0.70333143 21.33438669 0.5859375 17.7734375 C0.54726562 16.7421875 0.50859375 15.7109375 0.46875 14.6484375 C0.4378125 13.56820312 0.406875 12.48796875 0.375 11.375 C0.33632812 10.28703125 0.29765625 9.1990625 0.2578125 8.078125 C0.16333753 5.38558835 0.07777569 2.69306243 0 0 Z " fill="#56127B" transform="translate(11,141)"/>
<path d="M0 0 C-3.41809011 2.79974215 -7.17454713 4.70271778 -11.125 6.625 C-11.75792969 6.93695313 -12.39085938 7.24890625 -13.04296875 7.5703125 C-14.69373106 8.38342684 -16.34672437 9.19200815 -18 10 C-18.99 10.495 -18.99 10.495 -20 11 C-19.9375 9.1875 -19.9375 9.1875 -19 7 C-16 5.5625 -16 5.5625 -14.109375 4.86328125 C-10.88583087 3.54401597 -7.98630769 1.69796342 -5.015625 -0.109375 C-3 -1 -3 -1 0 0 Z " fill="#B972DF" transform="translate(88,85)"/>
<path d="M0 0 C0.66 0.33 1.32 0.66 2 1 C-1.91508266 4.67780492 -4.69816142 5.50908902 -10 6 C-10.99 6.33 -11.98 6.66 -13 7 C-15.04296875 6.87890625 -15.04296875 6.87890625 -17.1875 6.5625 C-18.445625 6.376875 -19.70375 6.19125 -21 6 C-21 5.67 -21 5.34 -21 5 C-20.154375 4.89042969 -19.30875 4.78085938 -18.4375 4.66796875 C-10.72034544 3.61484763 -10.72034544 3.61484763 -3.3125 1.3125 C-1.6728125 0.6628125 -1.6728125 0.6628125 0 0 Z " fill="#A860D0" transform="translate(51,124)"/>
<path d="M0 0 C0.66 0.33 1.32 0.66 2 1 C-0.625 5.875 -0.625 5.875 -4 7 C-4.80563638 9.10584438 -4.80563638 9.10584438 -5.1875 11.5625 C-5.34605469 12.38878906 -5.50460938 13.21507813 -5.66796875 14.06640625 C-5.77753906 14.70449219 -5.88710938 15.34257813 -6 16 C-6.66 15.67 -7.32 15.34 -8 15 C-8.4375 12.5 -8.4375 12.5 -8 9 C-5.65146884 5.69399075 -2.861105 2.861105 0 0 Z " fill="#A964D1" transform="translate(54,84)"/>
<path d="M0 0 C0.66 0.33 1.32 0.66 2 1 C2.625 3.0625 2.625 3.0625 3 5 C-0.06117568 7.62386487 -0.73173127 8 -5 8 C-3.8141763 4.62496331 -2.72426311 2.35277269 0 0 Z " fill="#5A0C84" transform="translate(61,162)"/>
<path d="M0 0 C-3.36128094 3.65786455 -6.34497737 6.1784694 -11 8 C-11.99 7.67 -12.98 7.34 -14 7 C-13.05125 6.773125 -12.1025 6.54625 -11.125 6.3125 C-7.79704705 5.33663628 -7.79704705 5.33663628 -6.875 2.4375 C-6.441875 1.2309375 -6.441875 1.2309375 -6 0 C-3.40713222 -1.13437965 -2.55267344 -1.27633672 0 0 Z " fill="#460B64" transform="translate(55,172)"/>
<path d="M0 0 C1.08667969 0.11085937 2.17335938 0.22171875 3.29296875 0.3359375 C4.12441406 0.43132813 4.95585937 0.52671875 5.8125 0.625 C5.8125 0.955 5.8125 1.285 5.8125 1.625 C5.13703125 1.65078125 4.4615625 1.6765625 3.765625 1.703125 C-1.863772 1.95487222 -1.863772 1.95487222 -6.6875 4.5625 C-7.1825 5.243125 -7.6775 5.92375 -8.1875 6.625 C-8.8475 7.285 -9.5075 7.945 -10.1875 8.625 C-9.875 5.25 -9.875 5.25 -9.1875 1.625 C-5.54331659 -0.80445561 -4.25826636 -0.4578781 0 0 Z " fill="#450A66" transform="translate(22.1875,53.375)"/>
<path d="M0 0 C1.43859375 -0.00773437 1.43859375 -0.00773437 2.90625 -0.015625 C5.5 0.25 5.5 0.25 8.5 2.25 C6.04203147 2.44436491 3.58390706 2.6307742 1.125 2.8125 C0.42632812 2.86857422 -0.27234375 2.92464844 -0.9921875 2.98242188 C-6.2734375 3.36328125 -6.2734375 3.36328125 -8.5 2.25 C-5.14802157 0.01534771 -3.92208754 -0.02108649 0 0 Z " fill="#A256CC" transform="translate(23.5,54.75)"/>
<path d="M0 0 C3.7910119 1.44950455 7.3874638 3.15172566 11 5 C8 6 8 6 5.8125 5.0625 C5.214375 4.711875 4.61625 4.36125 4 4 C3.01 5.485 3.01 5.485 2 7 C1.34 7 0.68 7 0 7 C0 4.69 0 2.38 0 0 Z " fill="#AB6AD1" transform="translate(73,57)"/>
<path d="M0 0 C0.66 0.99 1.32 1.98 2 3 C0.87895467 4.31587941 -0.24696965 5.62760353 -1.375 6.9375 C-2.31472656 8.03384766 -2.31472656 8.03384766 -3.2734375 9.15234375 C-5 11 -5 11 -7 12 C-7.66 11.34 -8.32 10.68 -9 10 C-8.2575 9.649375 -7.515 9.29875 -6.75 8.9375 C-3.1422483 6.39567494 -1.99090888 3.90808039 0 0 Z " fill="#4A0E69" transform="translate(39,73)"/>
<path d="M0 0 C0.66 1.32 1.32 2.64 2 4 C1.34 4 0.68 4 0 4 C-0.33 4.99 -0.66 5.98 -1 7 C-3.4375 8.75 -3.4375 8.75 -6 10 C-6.66 9.67 -7.32 9.34 -8 9 C-5.36 6.03 -2.72 3.06 0 0 Z " fill="#681F90" transform="translate(90,129)"/>
<path d="M0 0 C0.33 0.66 0.66 1.32 1 2 C1.66 2.33 2.32 2.66 3 3 C2.67 3.99 2.34 4.98 2 6 C2.66 6 3.32 6 4 6 C4.33 7.65 4.66 9.3 5 11 C3.0625 10.625 3.0625 10.625 1 10 C-0.60725635 6.78548731 -0.05748185 3.56387464 0 0 Z " fill="#7714AE" transform="translate(14,160)"/>
<path d="M0 0 C1.67427615 0.92384166 3.33928003 1.86450569 5 2.8125 C6.3921875 3.59560547 6.3921875 3.59560547 7.8125 4.39453125 C8.534375 4.92433594 9.25625 5.45414062 10 6 C10 6.99 10 7.98 10 9 C8.32572385 8.07615834 6.66071997 7.13549431 5 6.1875 C4.071875 5.66542969 3.14375 5.14335938 2.1875 4.60546875 C1.1046875 3.81076172 1.1046875 3.81076172 0 3 C0 2.01 0 1.02 0 0 Z " fill="#210831" transform="translate(122,83)"/>
<path d="M0 0 C0.66 0.33 1.32 0.66 2 1 C1.34 2.32 0.68 3.64 0 5 C-2.64 5 -5.28 5 -8 5 C-5.45378681 2.99940392 -3.01962385 1.20784954 0 0 Z " fill="#4D0D70" transform="translate(90,103)"/>
<path d="M0 0 C5.15464734 0.48324819 8.81550319 3.18610761 13 6 C12.01 6.495 12.01 6.495 11 7 C8.8359375 6.00390625 8.8359375 6.00390625 6.375 4.5625 C5.55773437 4.08941406 4.74046875 3.61632813 3.8984375 3.12890625 C3.27195312 2.75636719 2.64546875 2.38382813 2 2 C1.67 2.66 1.34 3.32 1 4 C0.67 2.68 0.34 1.36 0 0 Z " fill="#532E67" transform="translate(71,55)"/>
<path d="M0 0 C0 3 0 3 -2.25 5.75 C-3.1575 6.4925 -4.065 7.235 -5 8 C-6.32 7.67 -7.64 7.34 -9 7 C-6.03 4.69 -3.06 2.38 0 0 Z " fill="#6D1E99" transform="translate(81,139)"/>
<path d="M0 0 C0.66 0.66 1.32 1.32 2 2 C1.54625 2.433125 1.0925 2.86625 0.625 3.3125 C-1.20024334 5.10798342 -1.20024334 5.10798342 -3 8 C-3.66 7.01 -4.32 6.02 -5 5 C-3.35 3.35 -1.7 1.7 0 0 Z " fill="#310448" transform="translate(38,79)"/>
<path d="M0 0 C3.3 0 6.6 0 10 0 C5.78492722 3.16130459 4.93928888 3.3367697 0 3 C0 2.01 0 1.02 0 0 Z " fill="#6A129B" transform="translate(37,176)"/>
<path d="M0 0 C0.99 0.33 1.98 0.66 3 1 C1.02 3.97 1.02 3.97 -1 7 C-1.66 6.67 -2.32 6.34 -3 6 C-2.42655063 3.13275314 -2.1385485 2.1385485 0 0 Z " fill="#310548" transform="translate(23,88)"/>
<path d="M0 0 C0.66 0.33 1.32 0.66 2 1 C-0.40436026 4.60654039 -1.94679607 4.85452932 -6 6 C-5 3 -5 3 -2.5625 1.25 C-1.716875 0.8375 -0.87125 0.425 0 0 Z " fill="#73219D" transform="translate(70,147)"/>
<path d="M0 0 C1.134375 0.020625 2.26875 0.04125 3.4375 0.0625 C1.04240662 2.96182357 -0.87495243 3.56418276 -4.5625 4.0625 C-4.5625 -0.28271095 -4.43767807 0.077854 0 0 Z " fill="#340350" transform="translate(83.5625,103.9375)"/>
<path d="M0 0 C0.66 0.33 1.32 0.66 2 1 C0.02 3.97 0.02 3.97 -2 7 C-3.32 6.67 -4.64 6.34 -6 6 C-4.02 4.02 -2.04 2.04 0 0 Z " fill="#A663CD" transform="translate(62,77)"/>
</svg>
